<svg width="344" height="348" viewBox="0 0 344 348" fill="none" xmlns="http://www.w3.org/2000/svg">
  <rect x="0.516602" y="0.953125" width="342.623" height="346.294" rx="60"
    fill="url(#paint0_linear_153_8)" />
  <path
    d="M200.473 94.4806V155.557C200.473 161.446 202.25 167.195 205.567 172.037L246.459 231.736C257.014 247.146 246.102 268.196 227.558 268.196H116.098C97.554 268.196 86.6418 247.146 97.197 231.736L138.089 172.037C141.406 167.195 143.182 161.446 143.182 155.557V94.4806H136.024C132.069 94.4806 128.863 91.24 128.863 87.2425C128.863 83.245 132.069 80.0044 136.024 80.0044H207.638C211.593 80.0044 214.799 83.245 214.799 87.2425C214.799 91.24 211.593 94.4806 207.638 94.4806H200.473ZM157.505 155.557C157.505 164.39 154.84 173.014 149.865 180.277L144.18 188.576H199.476L193.791 180.277C188.816 173.014 186.151 164.39 186.151 155.557V94.4806H157.505V155.557ZM134.394 202.864L108.973 239.976C104.994 245.785 109.108 253.719 116.098 253.719H227.558C234.548 253.719 238.662 245.785 234.683 239.976L209.263 202.865C208.741 202.988 208.197 203.053 207.638 203.053H136.024C135.463 203.053 134.917 202.987 134.394 202.864Z"
    fill="white" />
  <defs>
    <linearGradient id="paint0_linear_153_8" x1="171.828" y1="347.247" x2="99.6729" y2="1.25755"
      gradientUnits="userSpaceOnUse">
      <stop />
      <stop offset="1" stop-color="#323232" />
    </linearGradient>
  </defs>
</svg>