<svg width="881" height="340" viewBox="0 0 881 340" fill="none" xmlns="http://www.w3.org/2000/svg">
<g filter="url(#filter0_d_153_13)">
<rect x="28.4268" y="24.1865" width="283.828" height="283.828" rx="60" fill="url(#paint0_linear_153_13)"/>
</g>
<path d="M194.071 100.843V150.902C194.071 155.729 195.543 160.441 198.29 164.409L232.165 213.34C240.909 225.97 231.869 243.223 216.508 243.223H124.174C108.812 243.223 99.7727 225.97 108.517 213.34L142.391 164.409C145.139 160.441 146.611 155.729 146.611 150.902V100.843H140.681C137.405 100.843 134.748 98.1869 134.748 94.9105C134.748 91.6341 137.405 88.978 140.681 88.978H200.006C203.282 88.978 205.938 91.6341 205.938 94.9105C205.938 98.1869 203.282 100.843 200.006 100.843H194.071ZM158.476 150.902C158.476 158.142 156.268 165.21 152.147 171.163L147.437 177.965H193.244L188.535 171.163C184.414 165.21 182.206 158.142 182.206 150.902V100.843H158.476V150.902ZM139.33 189.676L118.272 220.093C114.976 224.854 118.383 231.358 124.174 231.358H216.508C222.298 231.358 225.706 224.854 222.41 220.093L201.352 189.677C200.92 189.777 200.469 189.83 200.006 189.83H140.681C140.216 189.83 139.764 189.777 139.33 189.676Z" fill="white"/>
<g filter="url(#filter1_d_153_13)">
<path d="M376.678 213.978V120.887H415.132C422.102 120.887 428.117 122.251 433.178 124.978C438.269 127.675 442.193 131.448 444.951 136.296C447.708 141.114 449.087 146.72 449.087 153.114C449.087 159.539 447.678 165.16 444.86 169.978C442.072 174.766 438.087 178.478 432.905 181.114C427.723 183.751 421.572 185.069 414.451 185.069H390.723V167.342H410.269C413.663 167.342 416.496 166.751 418.769 165.569C421.072 164.387 422.814 162.736 423.996 160.614C425.178 158.463 425.769 155.963 425.769 153.114C425.769 150.236 425.178 147.751 423.996 145.66C422.814 143.539 421.072 141.902 418.769 140.751C416.466 139.599 413.632 139.023 410.269 139.023H399.178V213.978H376.678ZM460.178 213.978V144.16H482.405V213.978H460.178ZM471.314 136.023C468.193 136.023 465.511 134.993 463.269 132.933C461.026 130.842 459.905 128.327 459.905 125.387C459.905 122.478 461.026 119.993 463.269 117.933C465.511 115.842 468.193 114.796 471.314 114.796C474.466 114.796 477.147 115.842 479.36 117.933C481.602 119.993 482.723 122.478 482.723 125.387C482.723 128.327 481.602 130.842 479.36 132.933C477.147 134.993 474.466 136.023 471.314 136.023ZM496.553 213.978V144.16H517.689V156.978H518.462C519.916 152.736 522.371 149.387 525.826 146.933C529.28 144.478 533.401 143.251 538.189 143.251C543.038 143.251 547.189 144.493 550.644 146.978C554.098 149.463 556.295 152.796 557.235 156.978H557.962C559.265 152.827 561.81 149.508 565.598 147.023C569.386 144.508 573.856 143.251 579.007 143.251C585.613 143.251 590.977 145.372 595.098 149.614C599.219 153.827 601.28 159.614 601.28 166.978V213.978H579.053V172.069C579.053 168.584 578.159 165.933 576.371 164.114C574.583 162.266 572.265 161.342 569.416 161.342C566.356 161.342 563.947 162.342 562.189 164.342C560.462 166.311 559.598 168.963 559.598 172.296V213.978H538.235V171.842C538.235 168.599 537.356 166.039 535.598 164.16C533.841 162.281 531.522 161.342 528.644 161.342C526.704 161.342 524.992 161.811 523.507 162.751C522.022 163.66 520.856 164.963 520.007 166.66C519.189 168.357 518.78 170.357 518.78 172.66V213.978H496.553ZM647.644 215.296C640.31 215.296 634.007 213.796 628.735 210.796C623.492 207.766 619.447 203.554 616.598 198.16C613.78 192.736 612.371 186.448 612.371 179.296C612.371 172.114 613.78 165.827 616.598 160.433C619.447 155.008 623.492 150.796 628.735 147.796C634.007 144.766 640.31 143.251 647.644 143.251C654.977 143.251 661.265 144.766 666.507 147.796C671.78 150.796 675.826 155.008 678.644 160.433C681.492 165.827 682.916 172.114 682.916 179.296C682.916 186.448 681.492 192.736 678.644 198.16C675.826 203.554 671.78 207.766 666.507 210.796C661.265 213.796 654.977 215.296 647.644 215.296ZM647.78 198.523C650.447 198.523 652.704 197.705 654.553 196.069C656.401 194.433 657.81 192.16 658.78 189.251C659.78 186.342 660.28 182.978 660.28 179.16C660.28 175.281 659.78 171.887 658.78 168.978C657.81 166.069 656.401 163.796 654.553 162.16C652.704 160.523 650.447 159.705 647.78 159.705C645.022 159.705 642.689 160.523 640.78 162.16C638.901 163.796 637.462 166.069 636.462 168.978C635.492 171.887 635.007 175.281 635.007 179.16C635.007 182.978 635.492 186.342 636.462 189.251C637.462 192.16 638.901 194.433 640.78 196.069C642.689 197.705 645.022 198.523 647.78 198.523ZM755.257 165.478L734.848 166.023C734.636 164.569 734.06 163.281 733.121 162.16C732.182 161.008 730.954 160.114 729.439 159.478C727.954 158.811 726.227 158.478 724.257 158.478C721.682 158.478 719.485 158.993 717.666 160.023C715.879 161.054 715 162.448 715.03 164.205C715 165.569 715.545 166.751 716.666 167.751C717.818 168.751 719.863 169.554 722.803 170.16L736.257 172.705C743.227 174.039 748.409 176.251 751.803 179.342C755.227 182.433 756.954 186.523 756.985 191.614C756.954 196.402 755.53 200.569 752.712 204.114C749.924 207.66 746.106 210.417 741.257 212.387C736.409 214.327 730.863 215.296 724.621 215.296C714.651 215.296 706.788 213.251 701.03 209.16C695.303 205.039 692.03 199.523 691.212 192.614L713.166 192.069C713.651 194.614 714.909 196.554 716.939 197.887C718.969 199.22 721.56 199.887 724.712 199.887C727.56 199.887 729.879 199.357 731.666 198.296C733.454 197.236 734.363 195.827 734.394 194.069C734.363 192.493 733.666 191.236 732.303 190.296C730.939 189.327 728.803 188.569 725.894 188.023L713.712 185.705C706.712 184.433 701.5 182.084 698.076 178.66C694.651 175.205 692.954 170.811 692.985 165.478C692.954 160.811 694.197 156.827 696.712 153.523C699.227 150.19 702.803 147.645 707.439 145.887C712.076 144.13 717.545 143.251 723.848 143.251C733.303 143.251 740.757 145.236 746.212 149.205C751.666 153.145 754.682 158.569 755.257 165.478ZM787.61 215.16C783.155 215.16 779.201 214.417 775.746 212.933C772.322 211.417 769.61 209.145 767.61 206.114C765.64 203.054 764.655 199.22 764.655 194.614C764.655 190.736 765.337 187.463 766.701 184.796C768.064 182.13 769.943 179.963 772.337 178.296C774.731 176.63 777.488 175.372 780.61 174.523C783.731 173.645 787.064 173.054 790.61 172.751C794.579 172.387 797.776 172.008 800.201 171.614C802.625 171.19 804.382 170.599 805.473 169.842C806.594 169.054 807.155 167.948 807.155 166.523V166.296C807.155 163.963 806.352 162.16 804.746 160.887C803.14 159.614 800.973 158.978 798.246 158.978C795.307 158.978 792.943 159.614 791.155 160.887C789.367 162.16 788.231 163.917 787.746 166.16L767.246 165.433C767.852 161.19 769.413 157.402 771.928 154.069C774.473 150.705 777.958 148.069 782.382 146.16C786.837 144.22 792.185 143.251 798.428 143.251C802.882 143.251 806.988 143.781 810.746 144.842C814.504 145.872 817.776 147.387 820.564 149.387C823.352 151.357 825.504 153.781 827.019 156.66C828.564 159.539 829.337 162.827 829.337 166.523V213.978H808.428V204.251H807.882C806.64 206.614 805.049 208.614 803.11 210.251C801.201 211.887 798.943 213.114 796.337 213.933C793.761 214.751 790.852 215.16 787.61 215.16ZM794.473 200.614C796.867 200.614 799.019 200.13 800.928 199.16C802.867 198.19 804.413 196.857 805.564 195.16C806.716 193.433 807.291 191.433 807.291 189.16V182.523C806.655 182.857 805.882 183.16 804.973 183.433C804.094 183.705 803.125 183.963 802.064 184.205C801.004 184.448 799.913 184.66 798.791 184.842C797.67 185.023 796.594 185.19 795.564 185.342C793.473 185.675 791.685 186.19 790.201 186.887C788.746 187.584 787.625 188.493 786.837 189.614C786.079 190.705 785.701 192.008 785.701 193.523C785.701 195.827 786.519 197.584 788.155 198.796C789.822 200.008 791.928 200.614 794.473 200.614Z" fill="white"/>
</g>
<defs>
<filter id="filter0_d_153_13" x="0.926758" y="0.686523" width="338.828" height="338.828" filterUnits="userSpaceOnUse" color-interpolation-filters="sRGB">
<feFlood flood-opacity="0" result="BackgroundImageFix"/>
<feColorMatrix in="SourceAlpha" type="matrix" values="0 0 0 0 0 0 0 0 0 0 0 0 0 0 0 0 0 0 127 0" result="hardAlpha"/>
<feMorphology radius="8" operator="dilate" in="SourceAlpha" result="effect1_dropShadow_153_13"/>
<feOffset dy="4"/>
<feGaussianBlur stdDeviation="9.75"/>
<feComposite in2="hardAlpha" operator="out"/>
<feColorMatrix type="matrix" values="0 0 0 0 0 0 0 0 0 0 0 0 0 0 0 0 0 0 0.25 0"/>
<feBlend mode="normal" in2="BackgroundImageFix" result="effect1_dropShadow_153_13"/>
<feBlend mode="normal" in="SourceGraphic" in2="effect1_dropShadow_153_13" result="shape"/>
</filter>
<filter id="filter1_d_153_13" x="359.378" y="101.496" width="487.259" height="135.1" filterUnits="userSpaceOnUse" color-interpolation-filters="sRGB">
<feFlood flood-opacity="0" result="BackgroundImageFix"/>
<feColorMatrix in="SourceAlpha" type="matrix" values="0 0 0 0 0 0 0 0 0 0 0 0 0 0 0 0 0 0 127 0" result="hardAlpha"/>
<feOffset dy="4"/>
<feGaussianBlur stdDeviation="8.65"/>
<feComposite in2="hardAlpha" operator="out"/>
<feColorMatrix type="matrix" values="0 0 0 0 0 0 0 0 0 0 0 0 0 0 0 0 0 0 0.25 0"/>
<feBlend mode="normal" in2="BackgroundImageFix" result="effect1_dropShadow_153_13"/>
<feBlend mode="normal" in="SourceGraphic" in2="effect1_dropShadow_153_13" result="shape"/>
</filter>
<linearGradient id="paint0_linear_153_13" x1="170.341" y1="308.015" x2="111.777" y2="24.1865" gradientUnits="userSpaceOnUse">
<stop/>
<stop offset="1" stop-color="#323232"/>
</linearGradient>
</defs>
</svg>
